<svg width="24" height="23" viewBox="0 0 24 23" fill="none" xmlns="http://www.w3.org/2000/svg">
<path fill-rule="evenodd" clip-rule="evenodd" d="M15.9749 8.3637C15.9749 9.47279 15.526 10.5365 14.7272 11.3207C13.9283 12.1049 12.8448 12.5455 11.715 12.5455C10.5852 12.5455 9.50165 12.1049 8.70277 11.3207C7.90389 10.5365 7.45508 9.47279 7.45508 8.3637C7.45508 7.25462 7.90389 6.19095 8.70277 5.40671C9.50165 4.62247 10.5852 4.18188 11.715 4.18188C12.8448 4.18188 13.9283 4.62247 14.7272 5.40671C15.526 6.19095 15.9749 7.25462 15.9749 8.3637V8.3637ZM13.8449 8.3637C13.8449 8.91825 13.6205 9.45008 13.2211 9.8422C12.8216 10.2343 12.2799 10.4546 11.715 10.4546C11.1501 10.4546 10.6083 10.2343 10.2089 9.8422C9.80943 9.45008 9.58502 8.91825 9.58502 8.3637C9.58502 7.80916 9.80943 7.27733 10.2089 6.88521C10.6083 6.49309 11.1501 6.27279 11.715 6.27279C12.2799 6.27279 12.8216 6.49309 13.2211 6.88521C13.6205 7.27733 13.8449 7.80916 13.8449 8.3637V8.3637Z" fill="white"/>
<path fill-rule="evenodd" clip-rule="evenodd" d="M11.7146 0C5.24497 0 0 5.14886 0 11.5C0 17.8511 5.24497 23 11.7146 23C18.1843 23 23.4293 17.8511 23.4293 11.5C23.4293 5.14886 18.1843 0 11.7146 0ZM2.12994 11.5C2.12994 13.685 2.88926 15.6965 4.16189 17.2939C5.05565 16.1417 6.20866 15.208 7.53085 14.5656C8.85304 13.9232 10.3086 13.5897 11.7839 13.5909C13.24 13.5896 14.6773 13.9145 15.9862 14.541C17.295 15.1675 18.4409 16.079 19.3366 17.2061C20.2594 16.018 20.8806 14.6314 21.1491 13.1608C21.4175 11.6902 21.3254 10.1781 20.8803 8.74939C20.4352 7.32073 19.65 6.01664 18.5895 4.94504C17.5291 3.87344 16.224 3.06513 14.7822 2.58699C13.3403 2.10885 11.8032 1.97462 10.2981 2.19543C8.79293 2.41623 7.36296 2.9857 6.12651 3.85674C4.89006 4.72777 3.88267 5.87532 3.18769 7.20443C2.49271 8.53354 2.13013 10.006 2.12994 11.5V11.5ZM11.7146 20.9091C9.51437 20.9123 7.38051 20.1693 5.67415 18.8056C6.36098 17.8404 7.27515 17.0523 8.3389 16.5084C9.40265 15.9646 10.5845 15.681 11.7839 15.6818C12.9683 15.6809 14.1358 15.9574 15.1896 16.4883C16.2433 17.0192 17.1528 17.7893 17.8425 18.7345C16.1229 20.1425 13.9538 20.9122 11.7146 20.9091V20.9091Z" fill="white"/>
</svg>
