<svg width="27" height="23" viewBox="0 0 27 23" fill="none" xmlns="http://www.w3.org/2000/svg">
<path d="M10.3126 4.56237e-08C8.95842 -0.000117526 7.61743 0.227002 6.36625 0.668391C5.11506 1.10978 3.9782 1.75679 3.02057 2.57248C2.06294 3.38817 1.3033 4.35656 0.785024 5.42235C0.266752 6.48814 4.65299e-08 7.63046 5.3563e-08 8.78407C-0.00013798 9.93776 0.266512 11.0802 0.784722 12.1461C1.30293 13.212 2.06255 14.1805 3.0202 14.9962C3.97784 15.812 5.11475 16.4591 6.366 16.9006C7.61725 17.342 8.95833 17.5692 10.3126 17.569C12.7192 17.569 14.9293 16.843 16.6844 15.6667L17.6039 16.45C17.4151 16.7625 17.3482 17.1182 17.4131 17.4654C17.4779 17.8125 17.671 18.1329 17.9644 18.3801L22.7923 22.5206C23.5416 23.1598 24.768 23.1598 25.5184 22.5206L26.4379 21.7373C26.7979 21.4287 27 21.0112 27 20.5761C27 20.1411 26.7979 19.7236 26.4379 19.415L21.5774 15.3023C21.2852 15.0541 20.9068 14.8928 20.4984 14.8425C20.09 14.7922 19.6734 14.8555 19.3106 15.023L18.391 14.2397C19.5947 12.9457 20.3459 11.3891 20.5586 9.74809C20.7713 8.10713 20.4369 6.44833 19.5936 4.96188C18.7503 3.47543 17.4323 2.22152 15.7908 1.34391C14.1493 0.466304 12.2507 0.00053109 10.3126 4.56237e-08ZM10.3126 1.62217C12.5424 1.62217 14.6808 2.37673 16.2575 3.71984C17.8342 5.06296 18.72 6.88462 18.72 8.78407C18.72 10.6835 17.8342 12.5052 16.2575 13.8483C14.6808 15.1914 12.5424 15.946 10.3126 15.946C8.08288 15.946 5.94444 15.1914 4.36776 13.8483C2.79108 12.5052 1.90531 10.6835 1.90531 8.78407C1.90531 6.88462 2.79108 5.06296 4.36776 3.71984C5.94444 2.37673 8.08288 1.62217 10.3126 1.62217ZM4.99185 6.51823C4.43133 7.29163 4.13576 8.18311 4.13851 9.09203C4.13726 9.73529 4.28508 10.3724 4.57347 10.9669C4.86187 11.5614 5.28518 12.1016 5.81912 12.5564C6.35307 13.0113 6.98716 13.3719 7.68504 13.6176C8.38292 13.8632 9.13085 13.9892 9.88597 13.9881C11.0731 13.986 12.2308 13.6735 13.2027 13.0929C12.9407 13.1135 12.6776 13.1225 12.4145 13.1197C11.4391 13.1218 10.4729 12.9598 9.57126 12.6428C8.66964 12.3259 7.85044 11.8603 7.1607 11.2728C6.47096 10.6853 5.92429 9.98752 5.55209 9.21951C5.17989 8.4515 4.9895 7.62842 4.99185 6.79754C4.99185 6.70444 4.9866 6.61133 4.99185 6.51823Z" fill="#FFFFFF"/>
</svg>
