<svg width="72" height="71" viewBox="0 0 72 71" fill="none" xmlns="http://www.w3.org/2000/svg">
<path fill-rule="evenodd" clip-rule="evenodd" d="M0 5.91667C0 4.34747 0.539868 2.84254 1.50084 1.73295C2.46181 0.623363 3.76517 0 5.12419 0H66.6145C67.9735 0 69.2768 0.623363 70.2378 1.73295C71.1988 2.84254 71.7386 4.34747 71.7386 5.91667C71.7386 7.48587 71.1988 8.99079 70.2378 10.1004C69.2768 11.21 67.9735 11.8333 66.6145 11.8333H5.12419C3.76517 11.8333 2.46181 11.21 1.50084 10.1004C0.539868 8.99079 0 7.48587 0 5.91667Z" fill="white"/>
<path fill-rule="evenodd" clip-rule="evenodd" d="M0 35.5C0 33.9308 0.539868 32.4259 1.50084 31.3163C2.46181 30.2067 3.76517 29.5834 5.12419 29.5834H66.6145C67.9735 29.5834 69.2768 30.2067 70.2378 31.3163C71.1988 32.4259 71.7386 33.9308 71.7386 35.5C71.7386 37.0692 71.1988 38.5742 70.2378 39.6838C69.2768 40.7934 67.9735 41.4167 66.6145 41.4167H5.12419C3.76517 41.4167 2.46181 40.7934 1.50084 39.6838C0.539868 38.5742 0 37.0692 0 35.5Z" fill="white"/>
<path fill-rule="evenodd" clip-rule="evenodd" d="M0 65.0833C0 63.5141 0.539868 62.0092 1.50084 60.8996C2.46181 59.79 3.76517 59.1666 5.12419 59.1666H66.6145C67.9735 59.1666 69.2768 59.79 70.2378 60.8996C71.1988 62.0092 71.7386 63.5141 71.7386 65.0833C71.7386 66.6525 71.1988 68.1574 70.2378 69.267C69.2768 70.3766 67.9735 71 66.6145 71H5.12419C3.76517 71 2.46181 70.3766 1.50084 69.267C0.539868 68.1574 0 66.6525 0 65.0833Z" fill="white"/>
</svg>
